ModelForces
version=1
nRows=4
nColumns=158
inDegrees=no

This file contains the forces exerted on a model during a simulation.

A force is a generalized force, meaning that it can be either a force (N) or a torque (Nm).

Units are S.I. units (second, meters, Newtons, ...)
Angles are in degrees.

endheader
time	glut_med1_r	glut_med2_r	glut_med3_r	glut_min1_r	glut_min2_r	glut_min3_r	semimem_r	semiten_r	bifemlh_r	bifemsh_r	sar_r	add_long_r	add_brev_r	add_mag1_r	add_mag2_r	add_mag3_r	tfl_r	pect_r	grac_r	glut_max1_r	glut_max2_r	glut_max3_r	iliacus_r	psoas_r	quad_fem_r	gem_r	peri_r	rect_fem_r	vas_med_r	vas_int_r	vas_lat_r	med_gas_r	lat_gas_r	soleus_r	tib_post_r	flex_dig_r	flex_hal_r	tib_ant_r	per_brev_r	per_long_r	per_tert_r	ext_dig_r	ext_hal_r	glut_med1_l	glut_med2_l	glut_med3_l	glut_min1_l	glut_min2_l	glut_min3_l	semimem_l	semiten_l	bifemlh_l	bifemsh_l	sar_l	add_long_l	add_brev_l	add_mag1_l	add_mag2_l	add_mag3_l	tfl_l	pect_l	grac_l	glut_max1_l	glut_max2_l	glut_max3_l	iliacus_l	psoas_l	quad_fem_l	gem_l	peri_l	rect_fem_l	vas_med_l	vas_int_l	vas_lat_l	med_gas_l	lat_gas_l	soleus_l	tib_post_l	flex_dig_l	flex_hal_l	tib_ant_l	per_brev_l	per_long_l	per_tert_l	ext_dig_l	ext_hal_l	ercspn_r	ercspn_l	intobl_r	intobl_l	extobl_r	extobl_l	femur_lat_meniscii_r.femur_lat_r.force.X	femur_lat_meniscii_r.femur_lat_r.force.Y	femur_lat_meniscii_r.femur_lat_r.force.Z	femur_lat_meniscii_r.femur_lat_r.torque.X	femur_lat_meniscii_r.femur_lat_r.torque.Y	femur_lat_meniscii_r.femur_lat_r.torque.Z	femur_lat_meniscii_r.meniscus_lat_r.force.X	femur_lat_meniscii_r.meniscus_lat_r.force.Y	femur_lat_meniscii_r.meniscus_lat_r.force.Z	femur_lat_meniscii_r.meniscus_lat_r.torque.X	femur_lat_meniscii_r.meniscus_lat_r.torque.Y	femur_lat_meniscii_r.meniscus_lat_r.torque.Z	femur_med_meniscii_r.femur_med_r.force.X	femur_med_meniscii_r.femur_med_r.force.Y	femur_med_meniscii_r.femur_med_r.force.Z	femur_med_meniscii_r.femur_med_r.torque.X	femur_med_meniscii_r.femur_med_r.torque.Y	femur_med_meniscii_r.femur_med_r.torque.Z	femur_med_meniscii_r.meniscus_med_r.force.X	femur_med_meniscii_r.meniscus_med_r.force.Y	femur_med_meniscii_r.meniscus_med_r.force.Z	femur_med_meniscii_r.meniscus_med_r.torque.X	femur_med_meniscii_r.meniscus_med_r.torque.Y	femur_med_meniscii_r.meniscus_med_r.torque.Z	femur_med_tibia_r.tibia_upper_r.force.X	femur_med_tibia_r.tibia_upper_r.force.Y	femur_med_tibia_r.tibia_upper_r.force.Z	femur_med_tibia_r.tibia_upper_r.torque.X	femur_med_tibia_r.tibia_upper_r.torque.Y	femur_med_tibia_r.tibia_upper_r.torque.Z	femur_med_tibia_r.femur_med_r.force.X	femur_med_tibia_r.femur_med_r.force.Y	femur_med_tibia_r.femur_med_r.force.Z	femur_med_tibia_r.femur_med_r.torque.X	femur_med_tibia_r.femur_med_r.torque.Y	femur_med_tibia_r.femur_med_r.torque.Z	femur_lat_tibia_r.tibia_upper_r.force.X	femur_lat_tibia_r.tibia_upper_r.force.Y	femur_lat_tibia_r.tibia_upper_r.force.Z	femur_lat_tibia_r.tibia_upper_r.torque.X	femur_lat_tibia_r.tibia_upper_r.torque.Y	femur_lat_tibia_r.tibia_upper_r.torque.Z	femur_lat_tibia_r.femur_lat_r.force.X	femur_lat_tibia_r.femur_lat_r.force.Y	femur_lat_tibia_r.femur_lat_r.force.Z	femur_lat_tibia_r.femur_lat_r.torque.X	femur_lat_tibia_r.femur_lat_r.torque.Y	femur_lat_tibia_r.femur_lat_r.torque.Z	aACL_R	pACL_R	aPCL_R	pPCL_R	aMCL_R	mMCL_R	pMCL_R	aLCL_R	mLCL_R	pLCL_R	aPCL_L	pPCL_L	aMCL_L	aLCL_L	ground_prescribedForce_-90_fx	ground_prescribedForce_-90_fy	ground_prescribedForce_-90_fz
      0.00000000	     37.48087652	     28.28714471	     30.25598133	     13.28977762	     14.47626353	     15.91713841	      0.00000000	     14.93394371	     14.72974071	     24.18580536	      7.29249363	     27.93927808	     20.68957741	     14.51222487	     12.16230296	     19.66717628	     11.98515203	     11.16605282	      6.67712316	     18.12681708	     27.55933735	     20.56469162	     63.94906620	     55.74758807	     18.09791099	      9.16719286	     20.03897647	    222.00615091	     78.08105591	    112.09656335	    109.79150584	     10.50275607	      9.82718344	    152.72720615	     92.44658902	     14.93332009	     15.26895791	     41.82851940	     21.62523106	     46.40594865	      8.86060096	     25.04818486	      7.96045570	     37.48087652	     28.28714471	     30.25598133	     13.28977762	     14.47626353	     15.91713841	     42.06683902	     20.39635155	     37.67631238	     36.01822118	      7.59254209	     27.93927808	     20.68957741	     14.51222487	     12.16230296	     19.66717628	     12.58139899	     11.16605282	      7.78214370	     18.12681708	     27.55933735	     20.56469162	     63.94906620	     55.74758807	     18.09791099	      9.16719286	     20.03897647	     52.59637061	     32.48786114	     37.22481259	     39.87514307	     67.71424671	     31.64857027	    152.72720615	     92.44658902	     14.93332009	     15.26895791	     41.82851940	     21.62523106	     46.40594865	      8.86060096	     25.04818486	      7.96045570	    124.99446086	    124.99446086	     44.97041513	     44.97041513	     60.98287244	     60.98287244	     82.06651735	    -20.57321461	      1.32625263	     -0.00932964	      1.90435437	     33.26068052	    -82.06651735	     20.57321461	     -1.32625263	     -0.61873248	     -2.35115890	     -1.32810305	      0.00000000	      0.00000000	      0.00000000	      0.00000000	      0.00000000	      0.00000000	      0.00000000	      0.00000000	      0.00000000	      0.00000000	      0.00000000	      0.00000000	   -483.34235029	    -22.90318186	    230.23142098	     -2.29683747	     12.10757306	     -3.62339923	    483.34235029	     22.90318186	   -230.23142098	     93.58299608	     -8.19292073	    195.65680745	      0.00000000	      0.00000000	      0.00000000	      0.00000000	      0.00000000	      0.00000000	      0.00000000	      0.00000000	      0.00000000	      0.00000000	      0.00000000	      0.00000000	      3.75010814	     17.47868432	   1287.55116648	    863.31441598	     10.27620863	      2.10632205	      0.00000000	      0.00000000	      0.00000000	      0.00000000	      0.00000000	      0.00000000	      0.00000001	      0.00000000	      0.00000000	   -110.00000000	      0.00000000
      0.00100000	     37.47068608	     28.27022932	     30.24086714	     13.26950867	     14.46480712	     15.91260065	      0.00000000	     15.67738504	     15.63382494	     26.80942131	      7.54084299	     27.92554748	     20.64313666	     14.50364319	     12.15716021	     19.66293667	     11.46037819	     11.15324218	      7.16937719	     18.11779344	     27.54583488	     20.55620729	     63.92578024	     55.73415570	     18.08271668	      9.16509816	     20.03713766	    232.18149692	     88.29733656	    124.72894537	    120.25330899	      8.69549406	      8.71677018	    147.12376571	     92.08918321	     14.99492709	     15.27355674	     43.59864069	     21.28826929	     45.96200129	      9.24832950	     25.39850394	      8.10696964	     37.47068608	     28.27022932	     30.24086714	     13.26950867	     14.46480712	     15.91260065	     42.06228881	     20.39020965	     37.67123261	     35.98888344	      7.57882260	     27.92554748	     20.64313666	     14.50364319	     12.15716021	     19.66293667	     12.58033419	     11.15324218	      7.77413879	     18.11779344	     27.54583488	     20.55620729	     63.92578024	     55.73415570	     18.08271668	      9.16509816	     20.03713766	     52.58867645	     32.47668845	     37.21372981	     39.86386325	     67.70976811	     31.64643975	    152.71327822	     92.44307771	     14.93402208	     15.26942871	     41.82127614	     21.62263156	     46.40335095	      8.85785788	     25.04326423	      7.95848292	    124.81723588	    124.81723588	     44.95337082	     44.95337082	     60.96445217	     60.96445217	    128.44437468	    -63.37717547	     32.56785303	    -11.58327454	      3.40322442	     52.46674948	   -128.44437468	     63.37717547	    -32.56785303	     -1.62985054	     -4.93921169	     -3.34453526	      0.00000000	      0.00000000	      0.00000000	      0.00000000	      0.00000000	      0.00000000	      0.00000000	      0.00000000	      0.00000000	      0.00000000	      0.00000000	      0.00000000	   -748.14270665	     58.48896577	    230.94127023	     -1.74263070	     13.96188662	     -9.19270952	    748.14270665	    -58.48896577	   -230.94127023	     92.91677392	    -11.30501015	    303.88179763	      0.00000000	      0.00000000	      0.00000000	      0.00000000	      0.00000000	      0.00000000	      0.00000000	      0.00000000	      0.00000000	      0.00000000	      0.00000000	      0.00000000	    -34.13560827	    -39.24338059	   1211.86090980	    694.95786692	    -80.76252065	    -96.82060530	      0.00000000	      0.00000000	      0.00000000	      0.00000000	      0.00000000	      0.00000000	      0.00000001	      0.00000000	      0.00000000	   -110.00000000	      0.00000000
      0.00220116	     37.43186648	     28.20779284	     30.18454284	     13.20122483	     14.42337852	     15.89533516	      0.00000000	     17.79361442	     18.26024702	     33.79536074	      8.34626779	     27.87434329	     20.49763715	     14.47195111	     12.13785530	     19.64669950	     10.31327771	     11.10844081	      8.50961237	     18.08416618	     27.49547798	     20.52432664	     63.83854937	     55.68286352	     18.02794322	      9.15710974	     20.03001031	    250.70822951	    111.61098868	    149.59887927	    145.01297926	      5.34625554	      6.42555317	    133.26826153	     91.26126666	     15.22714131	     15.35086540	     48.46198207	     20.35540432	     44.73188860	     10.23773991	     26.21353294	      8.45783937	     37.43186648	     28.20779284	     30.18454284	     13.20122483	     14.42337852	     15.89533516	     42.04468301	     20.36687590	     37.65162581	     35.88286149	      7.53389256	     27.87434329	     20.49763715	     14.47195111	     12.13785530	     19.64669950	     12.57620841	     11.10844081	      7.74581275	     18.08416618	     27.49547798	     20.52432664	     63.83854937	     55.68286352	     18.02794322	      9.15710974	     20.03001031	     52.55900973	     32.43442991	     37.17162348	     39.82094936	     67.69236633	     31.63816210	    152.65928916	     92.42941365	     14.93666093	     15.27116771	     41.79341953	     21.61258197	     46.39324599	      8.84745294	     25.02440033	      7.95094199	    124.21376734	    124.21376734	     44.88910349	     44.88910349	     60.89530744	     60.89530744	    131.81360604	    -97.07935661	     74.30249059	    -27.59284406	      4.01779180	     54.27188445	   -131.81360604	     97.07935661	    -74.30249059	     -2.31430811	     -6.71697881	     -4.74280128	      0.00000000	      0.00000000	      0.00000000	      0.00000000	      0.00000000	      0.00000000	      0.00000000	      0.00000000	      0.00000000	      0.00000000	      0.00000000	      0.00000000	  -1121.34615294	    144.21970484	    259.78865995	     -1.37502533	     17.81445273	    -15.83619892	   1121.34615294	   -144.21970484	   -259.78865995	    103.60761300	    -16.01181866	    456.11001056	      0.00000000	      0.00000000	      0.00000000	      0.00000000	      0.00000000	      0.00000000	      0.00000000	      0.00000000	      0.00000000	      0.00000000	      0.00000000	      0.00000000	    -38.60517874	    -56.59111620	   1171.06424465	    651.23706277	    -68.42232595	    -87.92716555	      0.00000000	      0.00000000	      0.00000000	      0.00000000	      0.00000000	      0.00000000	      0.00000001	      0.00000000	      0.00000000	   -110.00000000	      0.00000000
      0.00340233	     37.36476903	     28.10391053	     30.08975255	     13.09876127	     14.35608927	     15.86553698	      0.00000000	     20.18247933	     21.36794257	     37.48683341	      9.16845083	     27.78809602	     20.29499153	     14.41918638	     12.10507866	     19.61844846	      9.37096548	     11.03839524	      9.51734859	     18.02756933	     27.41064639	     20.47013307	     63.69080946	     55.59394665	     17.93930209	      9.14328305	     20.01742358	    245.42886737	    117.86013889	    149.21128224	    160.16983000	      3.58806908	      4.74058565	    119.23713656	     90.50990520	     15.60437099	     15.54612409	     54.07137214	     19.26079338	     43.27640202	     11.22838468	     26.92917527	      8.78229527	     37.36476903	     28.10391053	     30.08975255	     13.09876127	     14.35608927	     15.86553698	     42.01365943	     20.32667904	     37.61718120	     35.71078524	      7.46845590	     27.78809602	     20.29499153	     14.41918638	     12.10507866	     19.61844846	     12.56892561	     11.03839524	      7.70093732	     18.02756933	     27.41064639	     20.47013307	     63.69080946	     55.59394665	     17.93930209	      9.14328305	     20.01742358	     52.50696088	     32.36201652	     37.09907752	     39.74688486	     67.66154092	     31.62350059	    152.56393708	     92.40516296	     14.94112045	     15.27403078	     41.74470197	     21.59489242	     46.37532085	      8.82956248	     24.99158008	      7.93787094	    123.29771785	    123.29771785	     44.77940306	     44.77940306	     60.77790400	     60.77790400	    112.80990237	   -107.43721502	     99.39929851	    -37.45909866	      3.89651908	     46.75513615	   -112.80990237	    107.43721502	    -99.39929851	     -2.43489536	     -7.18704142	     -5.03539489	      0.00000000	      0.00000000	      0.00000000	      0.00000000	      0.00000000	      0.00000000	      0.00000000	      0.00000000	      0.00000000	      0.00000000	      0.00000000	      0.00000000	  -1153.47847420	    160.13765493	    237.78039926	     -0.99179747	     17.48911683	    -16.61857014	   1153.47847420	   -160.13765493	   -237.78039926	     94.51076848	    -16.14970625	    469.37931179	      0.00000000	      0.00000000	      0.00000000	      0.00000000	      0.00000000	      0.00000000	      0.00000000	      0.00000000	      0.00000000	      0.00000000	      0.00000000	      0.00000000	    -28.75738563	    -53.06201673	   1158.54927048	    667.86746311	    -23.17764062	    -43.65326368	      0.00000000	      0.00000000	      0.00000000	      0.00000000	      0.00000000	      0.00000000	      0.00000001	      0.00000000	      0.00000000	   -110.00000000	      0.00000000
